<svg width="14" height="8" viewBox="0 0 14 8" fill="none" xmlns="http://www.w3.org/2000/svg">
<path fill-rule="evenodd" clip-rule="evenodd" d="M0.158175 0.164479C0.208187 0.112341 0.2676 0.0709756 0.33301 0.0427516C0.398421 0.0145276 0.468543 0 0.539361 0C0.610179 0 0.680301 0.0145276 0.745711 0.0427516C0.811122 0.0709756 0.870534 0.112341 0.920547 0.164479L7.00014 6.48751L13.0797 0.164479C13.1298 0.112426 13.1892 0.0711346 13.2546 0.0429636C13.32 0.0147926 13.3901 0.000293123 13.4609 0.000293123C13.5317 0.000293123 13.6018 0.0147926 13.6672 0.0429636C13.7326 0.0711346 13.792 0.112426 13.8421 0.164479C13.8922 0.216532 13.9319 0.278328 13.959 0.346339C13.9861 0.41435 14 0.487243 14 0.560858C14 0.634472 13.9861 0.707366 13.959 0.775377C13.9319 0.843387 13.8922 0.905183 13.8421 0.957237L7.38133 7.67552C7.33131 7.72766 7.2719 7.76902 7.20649 7.79725C7.14108 7.82547 7.07096 7.84 7.00014 7.84C6.92932 7.84 6.8592 7.82547 6.79379 7.79725C6.72838 7.76902 6.66897 7.72766 6.61895 7.67552L0.158175 0.957237C0.108036 0.905231 0.0682557 0.84345 0.0411135 0.775433C0.0139713 0.707415 0 0.634498 0 0.560858C0 0.487217 0.0139713 0.4143 0.0411135 0.346283C0.0682557 0.278265 0.108036 0.216485 0.158175 0.164479Z" fill="white"/>
</svg>
